<svg width="48px" height="48px" viewBox="0 0 48 48" xmlns="http://www.w3.org/2000/svg"><title>70 Basic icons by Xicons.co</title><path d="M31.12,22.2A10.5,10.5,0,0,0,10.5,24.85a10.23,10.23,0,0,0,4.17,8.26l1.1,0.82L31.5,23.61Z" fill="#f9d74a"/><path d="M46.15,31.4A8.08,8.08,0,0,0,41,28q0-.32,0-0.63A10.94,10.94,0,0,0,30.37,16.21a10.84,10.84,0,0,0-10.53,9.24,10.9,10.9,0,0,0-1.69-.13C12.55,25.32,8,29.62,8,34.9c0,5.46,3.14,9.42,7.82,9.85l24.06,0h0c4.61-.21,8.08-3.64,8.08-8A9,9,0,0,0,46.15,31.4Z" fill="#e1e6e8"/><path d="M20,11a2,2,0,0,1-2-2V5a2,2,0,0,1,4,0V9A2,2,0,0,1,20,11Z" fill="#f9d74a"/><path d="M6,26H2a2,2,0,0,1,0-4H6A2,2,0,0,1,6,26Z" fill="#f9d74a"/><path d="M31.46,14.56A2,2,0,0,1,30,11.16L33.12,8A2,2,0,0,1,36,10.84L32.88,14A2,2,0,0,1,31.46,14.56Z" fill="#f9d74a"/><path d="M10.54,14.56A2,2,0,0,1,9.12,14L6,10.84A2,2,0,0,1,8.88,8L12,11.16A2,2,0,0,1,10.54,14.56Z" fill="#f9d74a"/></svg>